# xmcd
#
# Track frame offsets: 
#        150
#        13870
#        33858
#        48723
#        62145
#        74113
#        88013
#        100983
#        111203
#        125720
#        138110
#        150545
#        166783
#        181263
#        198608
#        214125
#        230985
#        243978
#        260550
#        274163
#
# Disc length: 3838 seconds
#
# Revision: 3
# Processed by: cddbd v1.5.2PL0 Copyright (c) Steve Scherf et al.
# Submitted via: ExactAudioCopyFreeDBPlugin 1.0
#
DISCID=2f0efc14
DTITLE=Various Artist - 恋すれど廃盤大全集 嗚呼懐かしの女性ポップス！[Disc 1]
DYEAR=1990
DGENRE=Pop
TTITLE0=内藤洋子 - 白馬のルンナ
TTITLE1=平山三紀 - 真夏の出来事
TTITLE2=弘田三枝子 - 人形の家
TTITLE3=森山加代子 - 白い蝶のサンバ
TTITLE4=伊東ゆかり - 誰も知らない
TTITLE5=いしだあゆみ - ブルー・ライト・ヨコハマ
TTITLE6=辺見マリ - 経験
TTITLE7=ヒデとロザンナ - 愛の奇跡
TTITLE8=千賀かほる - 真夜中のギター
TTITLE9=ベッツイ＆クリス - 白い色は恋人の色
TTITLE10=エミー・ジャクソン - 涙の太陽
TTITLE11=小川ローザ - 風が落した涙
TTITLE12=弘田三枝子 - 渚のうわさ
TTITLE13=兼田みえこ - 私もあなたと泣いていい？
TTITLE14=平山三紀 - ビューティフル・ヨコハマ
TTITLE15=新谷のり子 - フランシーヌの場合
TTITLE16=久美かおり - くちづけが怖い
TTITLE17=ちあきなおみ - 雨に濡れた慕情
TTITLE18=いしだあゆみ - あなたならどうする
TTITLE19=ベッツイ＆クリス - 花のように
EXTD=YEAR: 1990
EXTT0=
EXTT1=
EXTT2=
EXTT3=
EXTT4=
EXTT5=
EXTT6=
EXTT7=
EXTT8=
EXTT9=
EXTT10=
EXTT11=
EXTT12=
EXTT13=
EXTT14=
EXTT15=
EXTT16=
EXTT17=
EXTT18=
EXTT19=
PLAYORDER=
